<?xml version="1.0" encoding="utf-8"?><svg xmlns="http://www.w3.org/2000/svg" viewBox="0 0 333.67 491.58" width="333.67" height="491.58"><g data-name="Слой 2"><g data-name="Capa 1"><path d="M166.83 0C74.84 0 0 74.84 0 166.83c0 37 21.76 93.19 68.49 176.93 31.89 57.14 63.63 105.4 65 107.43L156.4 486a12.5 12.5 0 0020.87 0l22.94-34.77c1.32-2 32.83-49.85 65-107.43 46.72-83.74 68.49-140 68.49-176.93C333.67 74.84 258.83 0 166.83 0zm76.52 331.58c-31.69 56.77-62.7 103.87-64 105.84l-12.51 19-12.5-18.95c-1.31-2-32.56-49.51-64-105.85C47 253.9 25 198.47 25 166.83 25 88.63 88.63 25 166.83 25s141.84 63.63 141.84 141.83c0 31.65-21.98 87.07-65.32 164.75z"/><path d="M166.83 73.29a92.5 92.5 0 1092.5 92.5 92.61 92.61 0 00-92.5-92.5zm0 160a67.5 67.5 0 1167.5-67.5 67.58 67.58 0 01-67.5 67.5z"/></g></g></svg>