<?xml version="1.0"?><svg xmlns="http://www.w3.org/2000/svg" data-name="Out line" width="512" height="512" viewBox="0 0 512 512"><path d="M400 56v5.084L277.844 22.51a51.595 51.595 0 00-43.341 5.685l-50.554 32.171A51.422 51.422 0 00160.634 96H48a8 8 0 00-8 8v176a8 8 0 008 8h336a8 8 0 008-8v-85.438a53.216 53.216 0 003.16-2.562H400v16a8 8 0 008 8h88v-16h-80V64h80V48h-88a8 8 0 00-8 8zM273.938 232a42.258 42.258 0 009.444-1.074A71.757 71.757 0 00264.455 272H224V112h6.058a25.94 25.94 0 0118.341 44.284l-4.118 4.117A41.941 41.941 0 00273.938 232zM328 208.455a71.427 71.427 0 00-17.284 4.14L328 195.311zm0 16.126V272h-47.42A56.113 56.113 0 01328 224.58zM208 272h-32V112h32zm-48 0h-40.455A72.122 72.122 0 0056 208.455v-32.91A72.122 72.122 0 00119.545 112H160zm-56.58-160A56.114 56.114 0 0156 159.42V112zM56 224.58A56.114 56.114 0 01103.42 272H56zM376 272h-32v-69.223a53.618 53.618 0 0032 0zm15.999-95.999a8 8 0 00-5.657 2.343 37.299 37.299 0 01-52.687-.001 8.003 8.003 0 00-11.314 0l-30.06 30.06a25.941 25.941 0 11-36.687-36.687l4.118-4.117h.001A41.941 41.941 0 00230.058 96H176.89a35.537 35.537 0 0115.648-22.136l50.554-32.17a35.633 35.633 0 0129.933-3.926L400 77.863v98.138zM64 488v-8h24a8 8 0 008-8v-8.454l.756.54a171.338 171.338 0 00220.741-18.269l60.16-60.16a36.28 36.28 0 00-46.203-55.555 30.552 30.552 0 00-51.004-6.936 31.19 31.19 0 00-46.286 19.193L225.754 376h-46.44l-5.657-5.657A64.595 64.595 0 0096 359.907V352a8 8 0 00-8-8H64a8 8 0 00-8-8H16v16h32v128H16v16h40a8 8 0 008-8zm236.207-159.172a14.56 14.56 0 0118.082 13.569l-55.823 55.823a31.901 31.901 0 00-3.977-8.153l32.762-54.602a14.472 14.472 0 018.956-6.637zm-50.521 17.412a15.195 15.195 0 0119.547-10.73 15.296 15.296 0 012.63 1.168l-25.61 42.684a31.782 31.782 0 00-4.397-1.802zM128 367.43a48.25 48.25 0 0134.343 14.227l8 8A8 8 0 00176 392h56a16 16 0 010 32h-72v16h72a32.026 32.026 0 0028.194-16.88l77.463-77.463a20.284 20.284 0 0128.686 28.686l-60.16 60.16a155.338 155.338 0 01-200.127 16.563L96 443.883v-64.405a48.2 48.2 0 0132-12.047zM80 360v104H64V360z"/></svg>