<?xml version="1.0" encoding="utf-8"?><svg height="640" viewBox="0 0 480 480" width="640" xmlns="http://www.w3.org/2000/svg"><path d="M360 211.313l106.344 106.343 11.312-11.312-112-112a8.004 8.004 0 00-11.312 0L304 244.688V72h-.07a7.945 7.945 0 00-2.274-5.656l-64-64A7.937 7.937 0 00232 .078V0H8a8 8 0 00-8 8v464a8 8 0 008 8h440a8 8 0 008-8V347.312l10.344 10.344 11.312-11.312-112-112a8.004 8.004 0 00-11.312 0l-112 112 11.312 11.312L264 347.312V464H16V16h208v56a8 8 0 008 8h56v180.688l-45.656 45.656 11.312 11.312zM376 464h-32v-48h32zm-16-212.688l80 80V464h-48v-56a8 8 0 00-8-8h-48a8 8 0 00-8 8v56h-48V331.312zM240 64V27.312L276.688 64zm0 0"/><path d="M304 384h32a8 8 0 008-8v-32a8 8 0 00-8-8h-32a8 8 0 00-8 8v32a8 8 0 008 8zm8-32h16v16h-16zm0 0M384 384h32a8 8 0 008-8v-32a8 8 0 00-8-8h-32a8 8 0 00-8 8v32a8 8 0 008 8zm8-32h16v16h-16zm0 0M400 160c44.184 0 80-35.816 80-80S444.184 0 400 0s-80 35.816-80 80c.047 44.164 35.836 79.953 80 80zm0-144c35.348 0 64 28.652 64 64s-28.652 64-64 64-64-28.652-64-64c.04-35.328 28.672-63.96 64-64zm0 0"/><path d="M400 104a8 8 0 01-8-8h-16a24.003 24.003 0 0016 22.527V128h16v-9.473c11.012-3.879 17.621-15.132 15.645-26.64C421.665 80.379 411.675 71.977 400 72a8 8 0 118-8h16a24.003 24.003 0 00-16-22.527V32h-16v9.473c-11.012 3.879-17.621 15.132-15.645 26.64C378.335 79.621 388.325 88.023 400 88a8 8 0 010 16zm0 0M48 64h144v16H48zm0 0M48 112h16v16H48zm0 0M80 112h32v16H80zm0 0M128 112h128v16H128zm0 0M48 160h208v16H48zm0 0M48 208h32v16H48zm0 0M96 208h32v16H96zm0 0M144 208h32v16h-32zm0 0M192 208h32v16h-32zm0 0M240 208h16v16h-16zm0 0M177.984 346.566l13.856 8 32-55.421a8.014 8.014 0 00.805-6.075 8.02 8.02 0 00-3.735-4.863l-20.797-12 4-6.926c6.625-11.488 2.688-26.176-8.8-32.8-11.489-6.63-26.172-2.688-32.801 8.8l-8 13.856-80 138.558a8.385 8.385 0 00-.903 2.403l-10.152 49.597a7.998 7.998 0 003.836 8.535 8.006 8.006 0 009.309-.94l37.855-33.603a7.615 7.615 0 001.598-1.984l76-131.633 13.855 8zm3.29-96.964c3.124-.84 6.449.289 8.417 2.855a8.005 8.005 0 01.582 8.871l-4 6.918-13.847-8 4-6.926a7.891 7.891 0 014.847-3.718zM87.104 414.184l8.48 4.906L84 429.36zm19.2-7.407l-13.848-8 72-124.707 13.848 8zm0 0"/></svg>