<svg xmlns="http://www.w3.org/2000/svg" viewBox="0 0 512 506"><g id="Слой_2" data-name="Слой 2"><g id="Capa_1" data-name="Capa 1"><path d="M342 325.36c-12.13 0-22-8.54-22-19s9.87-19 22-19 22 8.54 22 19a10 10 0 0020 0c0-18.33-13.65-33.74-32-37.92v-5.2a10 10 0 00-20 0v5.2c-18.34 4.18-32 19.59-32 37.92 0 21.52 18.85 39 42 39 12.14 0 22 8.54 22 19s-9.86 19-22 19-22-8.54-22-19a10 10 0 00-20 0c0 18.33 13.66 33.73 32 37.92v4.32a10 10 0 0020 0v-4.32c18.35-4.19 32-19.59 32-37.92 0-21.49-18.89-39-42-39zm109.48-59.48a130.21 130.21 0 00-53.22-47.1 10 10 0 10-8.67 18 110.09 110.09 0 0149.59 150.79 10 10 0 1017.65 9.4 130.12 130.12 0 00-5.35-131.11zM357.67 206H357a10 10 0 000 20h.63a10 10 0 000-20zm-63.26 229.2a110.09 110.09 0 01-49.59-150.79 10 10 0 10-17.65-9.41 130.05 130.05 0 0058.57 178.21 10 10 0 108.67-18zM327 446h-.58a10 10 0 00-.09 20h.67a10 10 0 000-20z"/><path d="M387.41 172.17A46.6 46.6 0 00383 164h26a46 46 0 000-92h-80.08A46 46 0 00291 0H46a46 46 0 000 92h80.08a45.87 45.87 0 000 52H100a46 46 0 00-28.58 82 45.91 45.91 0 000 72 45.91 45.91 0 000 72A46 46 0 00100 452h117.85A169.54 169.54 0 00342 506c93.74 0 170-76.26 170-170 0-78-52.83-143.92-124.59-163.83zM409 92a26 26 0 010 52H164a26 26 0 010-52zM46 72a26 26 0 010-52h245a26 26 0 010 52zm54 92h245a26.08 26.08 0 0111.35 2.61Q349.24 166 342 166a169.49 169.49 0 00-120.3 50H100a26 26 0 010-52zm0 72h104.61a169.71 169.71 0 00-25.7 52H100a26 26 0 010-52zm0 72h74.32a170.19 170.19 0 00-.62 52H100a26 26 0 010-52zm0 124a26 26 0 010-52h77.79a169.17 169.17 0 0024 52zm242 54c-82.71 0-150-67.29-150-150s67.29-150 150-150 150 67.29 150 150-67.29 150-150 150z"/></g></g></svg>