<?xml version="1.0" encoding="utf-8"?><svg viewBox="0 0 1250 1250" xmlns="http://www.w3.org/2000/svg" xmlns:xlink="http://www.w3.org/1999/xlink"><style>:root>svg{display:none}:root>svg:target{display:block}</style><svg viewBox="0 0 29 29" id="example" xmlns="http://www.w3.org/2000/svg"><path d="M28.24 22.372l-5.87-3.915a1.713 1.713 0 00-2.294.373l-1.71 2.199a.73.73 0 01-.937.197l-.325-.18c-1.079-.587-2.42-1.319-5.123-4.023-2.703-2.704-3.436-4.046-4.024-5.122l-.178-.326a.732.732 0 01.193-.94l2.197-1.71c.703-.55.865-1.548.373-2.293L6.628.762A1.704 1.704 0 004.33.245L1.876 1.719A3.462 3.462 0 00.297 3.77c-.884 3.22-.219 8.778 7.969 16.966C14.779 27.247 19.627 29 22.96 29a8.56 8.56 0 002.271-.297 3.46 3.46 0 002.05-1.579l1.475-2.453a1.704 1.704 0 00-.517-2.298zm-.317 1.802l-1.472 2.455a2.497 2.497 0 01-1.474 1.142c-2.973.817-8.167.14-16.028-7.72C1.09 12.191.413 6.997 1.23 4.024a2.501 2.501 0 011.144-1.476l2.455-1.472a.74.74 0 01.997.224L7.95 4.492 9.736 7.17a.744.744 0 01-.162.996L7.377 9.874a1.691 1.691 0 00-.448 2.17l.175.318c.617 1.132 1.385 2.542 4.189 5.344 2.803 2.803 4.212 3.571 5.344 4.189l.317.175c.735.412 1.66.22 2.171-.448l1.71-2.198a.744.744 0 01.995-.16l5.87 3.914c.329.218.428.658.223.996zM16.433 4.836a8.225 8.225 0 018.215 8.215.483.483 0 10.967 0 9.192 9.192 0 00-9.182-9.182.483.483 0 100 .967z"/><path d="M16.433 7.735a5.322 5.322 0 015.316 5.316.483.483 0 00.966 0 6.29 6.29 0 00-6.282-6.282.483.483 0 100 .966z"/><path d="M16.433 10.635a2.42 2.42 0 012.416 2.416.483.483 0 10.967 0 3.387 3.387 0 00-3.383-3.383.483.483 0 100 .967z"/></svg><svg viewBox="0 0 132.6 240.82" id="icon__arrow" xmlns="http://www.w3.org/2000/svg"><g data-name="Слой 2"><g data-name="Capa 1"><path data-name="Chevron Right" d="M3.52 129l108.3 108.26A12.16 12.16 0 00129 220.09l-99.68-99.67L129 20.75a12.17 12.17 0 00-17.2-17.2L3.51 111.81A12.28 12.28 0 003.52 129z"/></g></g></svg><svg viewBox="0 0 480 480" id="icon__buildings" xmlns="http://www.w3.org/2000/svg"><path d="M360 211.313l106.344 106.343 11.312-11.312-112-112a8.004 8.004 0 00-11.312 0L304 244.688V72h-.07a7.945 7.945 0 00-2.274-5.656l-64-64A7.937 7.937 0 00232 .078V0H8a8 8 0 00-8 8v464a8 8 0 008 8h440a8 8 0 008-8V347.312l10.344 10.344 11.312-11.312-112-112a8.004 8.004 0 00-11.312 0l-112 112 11.312 11.312L264 347.312V464H16V16h208v56a8 8 0 008 8h56v180.688l-45.656 45.656 11.312 11.312zM376 464h-32v-48h32zm-16-212.688l80 80V464h-48v-56a8 8 0 00-8-8h-48a8 8 0 00-8 8v56h-48V331.312zM240 64V27.312L276.688 64zm0 0"/><path d="M304 384h32a8 8 0 008-8v-32a8 8 0 00-8-8h-32a8 8 0 00-8 8v32a8 8 0 008 8zm8-32h16v16h-16zm0 0M384 384h32a8 8 0 008-8v-32a8 8 0 00-8-8h-32a8 8 0 00-8 8v32a8 8 0 008 8zm8-32h16v16h-16zm0 0M400 160c44.184 0 80-35.816 80-80S444.184 0 400 0s-80 35.816-80 80c.047 44.164 35.836 79.953 80 80zm0-144c35.348 0 64 28.652 64 64s-28.652 64-64 64-64-28.652-64-64c.04-35.328 28.672-63.96 64-64zm0 0"/><path d="M400 104a8 8 0 01-8-8h-16a24.003 24.003 0 0016 22.527V128h16v-9.473c11.012-3.879 17.621-15.132 15.645-26.64C421.665 80.379 411.675 71.977 400 72a8 8 0 118-8h16a24.003 24.003 0 00-16-22.527V32h-16v9.473c-11.012 3.879-17.621 15.132-15.645 26.64C378.335 79.621 388.325 88.023 400 88a8 8 0 010 16zm0 0M48 64h144v16H48zm0 0M48 112h16v16H48zm0 0M80 112h32v16H80zm0 0M128 112h128v16H128zm0 0M48 160h208v16H48zm0 0M48 208h32v16H48zm0 0M96 208h32v16H96zm0 0M144 208h32v16h-32zm0 0M192 208h32v16h-32zm0 0M240 208h16v16h-16zm0 0M177.984 346.566l13.856 8 32-55.421a8.014 8.014 0 00.805-6.075 8.02 8.02 0 00-3.735-4.863l-20.797-12 4-6.926c6.625-11.488 2.688-26.176-8.8-32.8-11.489-6.63-26.172-2.688-32.801 8.8l-8 13.856-80 138.558a8.385 8.385 0 00-.903 2.403l-10.152 49.597a7.998 7.998 0 003.836 8.535 8.006 8.006 0 009.309-.94l37.855-33.603a7.615 7.615 0 001.598-1.984l76-131.633 13.855 8zm3.29-96.964c3.124-.84 6.449.289 8.417 2.855a8.005 8.005 0 01.582 8.871l-4 6.918-13.847-8 4-6.926a7.891 7.891 0 014.847-3.718zM87.104 414.184l8.48 4.906L84 429.36zm19.2-7.407l-13.848-8 72-124.707 13.848 8zm0 0"/></svg><svg viewBox="0 0 512 512" id="icon__credits" xmlns="http://www.w3.org/2000/svg"><path d="M85.072 454.931c-1.859-1.861-4.439-2.93-7.069-2.93s-5.21 1.069-7.07 2.93c-1.86 1.861-2.93 4.44-2.93 7.07s1.069 5.21 2.93 7.069c1.86 1.86 4.44 2.931 7.07 2.931s5.21-1.07 7.069-2.931c1.86-1.859 2.931-4.439 2.931-7.069s-1.07-5.21-2.931-7.07zM469.524 182.938a10.054 10.054 0 00-7.07-2.93c-2.63 0-5.21 1.069-7.07 2.93-1.859 1.86-2.93 4.44-2.93 7.07s1.07 5.21 2.93 7.069a10.077 10.077 0 007.07 2.931c2.64 0 5.21-1.07 7.07-2.931 1.869-1.859 2.939-4.439 2.939-7.069s-1.07-5.21-2.939-7.07z"/><path d="M509.065 2.929A10.006 10.006 0 00501.992 0L255.998.013c-5.522 0-9.999 4.478-9.999 10V38.61L151.21 64.009c-5.335 1.43-8.501 6.913-7.071 12.247l49.127 183.342-42.499 42.499c-5.409-7.898-14.491-13.092-24.764-13.092H30.006c-16.542 0-29.999 13.458-29.999 29.999V482c0 16.542 13.457 30 29.999 30h95.998c14.053 0 25.875-9.716 29.115-22.78l11.89 10.369a50.382 50.382 0 0033.118 12.412h301.867c5.522 0 10-4.478 10-10V10a10.01 10.01 0 00-2.929-7.071zM136.002 482.001c0 5.513-4.486 10-10 10H30.005c-5.514 0-10-4.486-10-10V319.005c0-5.514 4.486-10 10-10h37.999V424.2c0 5.522 4.478 10 10 10s10-4.478 10-10V309.005h37.999c5.514 0 10 4.486 10 10v162.996zm30.043-401.262l79.954-21.424V96.37l-6.702 1.796a9.997 9.997 0 00-7.071 12.247c3.843 14.341-4.698 29.134-19.039 32.977a9.998 9.998 0 00-7.066 12.267L245.1 299.995h-20.07l-10.343-40.464a9.985 9.985 0 00-1.676-3.507L166.045 80.739zm79.954 61.49v84.381l-18.239-67.535c7.619-3.934 13.854-9.82 18.239-16.846zM389.663 492H200.125a30.388 30.388 0 01-19.974-7.485l-24.149-21.061V325.147l43.658-43.658 7.918 30.98a10 10 0 009.688 7.523l196.604.012c7.72 0 14 6.28 14 14s-6.28 14-14 14H313.13c-5.522 0-10 4.478-10 10s4.478 10 10 10h132.04c7.72 0 14 6.28 14 14s-6.28 14-14 14H313.13c-5.522 0-10 4.478-10 10s4.478 10 10 10h110.643c7.72 0 14 6.28 14 14s-6.28 14-14 14H313.13c-5.522 0-10 4.478-10 10s4.478 10 10 10h76.533c7.72 0 14 6.28 14 14-.001 7.716-6.281 13.996-14 13.996zm102.331 0h-71.36c1.939-4.273 3.028-9.01 3.028-14s-1.089-9.727-3.028-14h3.139c18.747 0 33.999-15.252 33.999-33.999a33.778 33.778 0 00-3.609-15.217c14.396-3.954 25.005-17.149 25.005-32.782a33.816 33.816 0 00-6.711-20.255v-126.74c0-5.522-4.478-10-10-10s-10 4.478-10 10v113.792a34.008 34.008 0 00-7.289-.795h-.328a33.79 33.79 0 003.028-14c0-18.748-15.252-33.999-33.999-33.999h-16.075c17.069-7.32 29.057-24.286 29.057-44.005 0-26.389-21.468-47.858-47.857-47.858-26.388 0-47.857 21.469-47.857 47.858 0 19.719 11.989 36.685 29.057 44.005h-54.663V109.863c17.864-3.893 31.96-17.988 35.852-35.853h75.221c3.892 17.865 17.988 31.96 35.852 35.853v31.09c0 5.522 4.478 10 10 10s10-4.478 10-10v-40.018c0-5.522-4.478-10-10-10-14.847 0-26.924-12.079-26.924-26.925 0-5.522-4.478-10-10-10h-93.076c-5.522 0-10 4.478-10 10 0 14.847-12.078 26.925-26.924 26.925-5.522 0-10 4.478-10 10v199.069H266V20.011L491.994 20v472zM378.996 283.858c-15.361 0-27.857-12.497-27.857-27.857s12.497-27.858 27.857-27.858S406.853 240.64 406.853 256s-12.496 27.858-27.857 27.858z"/></svg><svg viewBox="0 0 937.5 937.5" id="icon__debit-card" xmlns="http://www.w3.org/2000/svg"><path d="M781.25 165.531V78.125C781.195 35 746.25.055 703.125 0h-625C35 .055.055 35 0 78.125v343.75c.121 39.902 30.367 73.273 70.063 77.32l58.734 152.465c15.516 40.258 60.726 60.313 100.988 44.817l366.777-141.29c-25.343 66.2-18.132 140.461 19.461 200.551L625 770.094v151.781c0 8.633 6.992 15.625 15.625 15.625h281.25c8.633 0 15.625-6.992 15.625-15.625V406.113a204.484 204.484 0 00-59.863-144.023zm0 93.446l47.422 123.101c9.293 24.164-2.75 51.277-26.91 60.578l-27.106 10.469a78.145 78.145 0 006.594-31.25zm-750 162.898V78.125c0-25.883 20.992-46.875 46.875-46.875h625C729.008 31.25 750 52.242 750 78.125v99.313h-.137l.137.355v244.082a47.447 47.447 0 01-1.063 8.094l-143.125-143.14c-32.171-31.43-83.46-31.673-115.921-.571-32.47 31.12-34.418 82.37-4.391 115.847l61.016 66.645H78.125c-25.883 0-46.875-20.992-46.875-46.875zM231.422 500l-111.11 42.777L103.876 500zm-12.875 167.309c-24.156 9.312-51.285-2.73-60.594-26.887l-26.36-68.547L318.11 500v-.094h257.047l20.309 22.14zM906.25 906.25h-250v-125h250zm0-156.25H649.297l-6.777-10.828c-38.098-60.883-39.614-137.781-3.957-200.11a15.618 15.618 0 00-2.047-18.312L508.473 381.062c-19.094-20.898-18.02-53.207 2.422-72.78 20.449-19.579 52.773-19.259 72.82.71l248.988 248.93 22.094-22.094-57.813-57.812 16.032-6.25c40.226-15.52 60.273-60.692 44.797-100.942l-52.887-137.328 50.617 50.723a173.037 173.037 0 0150.707 121.894zm0 0"/><path d="M178.125 218.75c22.438 0 40.625-18.188 40.625-40.625v-75c0-22.438-18.188-40.625-40.625-40.625h-75C80.687 62.5 62.5 80.688 62.5 103.125v75c0 22.438 18.188 40.625 40.625 40.625zM93.75 178.125V156.25H125V125H93.75v-21.875c0-5.176 4.2-9.375 9.375-9.375h75c5.176 0 9.375 4.2 9.375 9.375V125h-31.25v31.25h31.25v21.875c0 5.176-4.2 9.375-9.375 9.375h-75c-5.176 0-9.375-4.2-9.375-9.375zm0 0M78.125 265.625h62.5v31.25h-62.5zm0 0M78.125 359.375h62.5v31.25h-62.5zm0 0M359.375 359.375h62.5v31.25h-62.5zm0 0M171.875 265.625h62.5v31.25h-62.5zm0 0M265.625 265.625h62.5v31.25h-62.5zm0 0M359.375 265.625h62.5v31.25h-62.5zm0 0M656.25 78.125h31.25V125h-31.25zm0 0M593.75 78.125H625V125h-31.25zm0 0M531.25 78.125h31.25V125h-31.25zm0 0M468.75 78.125H500V125h-31.25zm0 0M687.5 812.5h31.25v31.25H687.5zm0 0"/></svg><svg data-name="Out line" viewBox="0 0 512 512" id="icon__loan" xmlns="http://www.w3.org/2000/svg"><path d="M400 56v5.084L277.844 22.51a51.595 51.595 0 00-43.341 5.685l-50.554 32.171A51.422 51.422 0 00160.634 96H48a8 8 0 00-8 8v176a8 8 0 008 8h336a8 8 0 008-8v-85.438a53.216 53.216 0 003.16-2.562H400v16a8 8 0 008 8h88v-16h-80V64h80V48h-88a8 8 0 00-8 8zM273.938 232a42.258 42.258 0 009.444-1.074A71.757 71.757 0 00264.455 272H224V112h6.058a25.94 25.94 0 0118.341 44.284l-4.118 4.117A41.941 41.941 0 00273.938 232zM328 208.455a71.427 71.427 0 00-17.284 4.14L328 195.311zm0 16.126V272h-47.42A56.113 56.113 0 01328 224.58zM208 272h-32V112h32zm-48 0h-40.455A72.122 72.122 0 0056 208.455v-32.91A72.122 72.122 0 00119.545 112H160zm-56.58-160A56.114 56.114 0 0156 159.42V112zM56 224.58A56.114 56.114 0 01103.42 272H56zM376 272h-32v-69.223a53.618 53.618 0 0032 0zm15.999-95.999a8 8 0 00-5.657 2.343 37.299 37.299 0 01-52.687-.001 8.003 8.003 0 00-11.314 0l-30.06 30.06a25.941 25.941 0 11-36.687-36.687l4.118-4.117h.001A41.941 41.941 0 00230.058 96H176.89a35.537 35.537 0 0115.648-22.136l50.554-32.17a35.633 35.633 0 0129.933-3.926L400 77.863v98.138zM64 488v-8h24a8 8 0 008-8v-8.454l.756.54a171.338 171.338 0 00220.741-18.269l60.16-60.16a36.28 36.28 0 00-46.203-55.555 30.552 30.552 0 00-51.004-6.936 31.19 31.19 0 00-46.286 19.193L225.754 376h-46.44l-5.657-5.657A64.595 64.595 0 0096 359.907V352a8 8 0 00-8-8H64a8 8 0 00-8-8H16v16h32v128H16v16h40a8 8 0 008-8zm236.207-159.172a14.56 14.56 0 0118.082 13.569l-55.823 55.823a31.901 31.901 0 00-3.977-8.153l32.762-54.602a14.472 14.472 0 018.956-6.637zm-50.521 17.412a15.195 15.195 0 0119.547-10.73 15.296 15.296 0 012.63 1.168l-25.61 42.684a31.782 31.782 0 00-4.397-1.802zM128 367.43a48.25 48.25 0 0134.343 14.227l8 8A8 8 0 00176 392h56a16 16 0 010 32h-72v16h72a32.026 32.026 0 0028.194-16.88l77.463-77.463a20.284 20.284 0 0128.686 28.686l-60.16 60.16a155.338 155.338 0 01-200.127 16.563L96 443.883v-64.405a48.2 48.2 0 0132-12.047zM80 360v104H64V360z"/></svg><svg viewBox="0 0 512 506" id="icon__money" xmlns="http://www.w3.org/2000/svg"><g data-name="Слой 2"><g data-name="Capa 1"><path d="M342 325.36c-12.13 0-22-8.54-22-19s9.87-19 22-19 22 8.54 22 19a10 10 0 0020 0c0-18.33-13.65-33.74-32-37.92v-5.2a10 10 0 00-20 0v5.2c-18.34 4.18-32 19.59-32 37.92 0 21.52 18.85 39 42 39 12.14 0 22 8.54 22 19s-9.86 19-22 19-22-8.54-22-19a10 10 0 00-20 0c0 18.33 13.66 33.73 32 37.92v4.32a10 10 0 0020 0v-4.32c18.35-4.19 32-19.59 32-37.92 0-21.49-18.89-39-42-39zM451.48 265.88a130.21 130.21 0 00-53.22-47.1 10 10 0 10-8.67 18 110.09 110.09 0 0149.59 150.79 10 10 0 1017.65 9.4 130.12 130.12 0 00-5.35-131.11zM357.67 206H357a10 10 0 000 20h.63a10 10 0 000-20zM294.41 435.2a110.09 110.09 0 01-49.59-150.79 10 10 0 10-17.65-9.41 130.05 130.05 0 0058.57 178.21 10 10 0 108.67-18zM327 446h-.58a10 10 0 00-.09 20h.67a10 10 0 000-20z"/><path d="M387.41 172.17A46.6 46.6 0 00383 164h26a46 46 0 000-92h-80.08A46 46 0 00291 0H46a46 46 0 000 92h80.08a45.87 45.87 0 000 52H100a46 46 0 00-28.58 82 45.91 45.91 0 000 72 45.91 45.91 0 000 72A46 46 0 00100 452h117.85A169.54 169.54 0 00342 506c93.74 0 170-76.26 170-170 0-78-52.83-143.92-124.59-163.83zM409 92a26 26 0 010 52H164a26 26 0 010-52zM46 72a26 26 0 010-52h245a26 26 0 010 52zm54 92h245a26.08 26.08 0 0111.35 2.61Q349.24 166 342 166a169.49 169.49 0 00-120.3 50H100a26 26 0 010-52zm0 72h104.61a169.71 169.71 0 00-25.7 52H100a26 26 0 010-52zm0 72h74.32a170.19 170.19 0 00-.62 52H100a26 26 0 010-52zm0 124a26 26 0 010-52h77.79a169.17 169.17 0 0024 52zm242 54c-82.71 0-150-67.29-150-150s67.29-150 150-150 150 67.29 150 150-67.29 150-150 150z"/></g></g></svg><svg viewBox="0 0 480.56 480.56" id="icon__phone" xmlns="http://www.w3.org/2000/svg"><path d="M365.354 317.9c-15.7-15.5-35.3-15.5-50.9 0-11.9 11.8-23.8 23.6-35.5 35.6-3.2 3.3-5.9 4-9.8 1.8-7.7-4.2-15.9-7.6-23.3-12.2-34.5-21.7-63.4-49.6-89-81-12.7-15.6-24-32.3-31.9-51.1-1.6-3.8-1.3-6.3 1.8-9.4 11.9-11.5 23.5-23.3 35.2-35.1 16.3-16.4 16.3-35.6-.1-52.1-9.3-9.4-18.6-18.6-27.9-28-9.6-9.6-19.1-19.3-28.8-28.8-15.7-15.3-35.3-15.3-50.9.1-12 11.8-23.5 23.9-35.7 35.5-11.3 10.7-17 23.8-18.2 39.1-1.9 24.9 4.2 48.4 12.8 71.3 17.6 47.4 44.4 89.5 76.9 128.1 43.9 52.2 96.3 93.5 157.6 123.3 27.6 13.4 56.2 23.7 87.3 25.4 21.4 1.2 40-4.2 54.9-20.9 10.2-11.4 21.7-21.8 32.5-32.7 16-16.2 16.1-35.8.2-51.8-19-19.1-38.1-38.1-57.2-57.1zM346.254 238.2l36.9-6.3c-5.8-33.9-21.8-64.6-46.1-89-25.7-25.7-58.2-41.9-94-46.9l-5.2 37.1c27.7 3.9 52.9 16.4 72.8 36.3 18.8 18.8 31.1 42.6 35.6 68.8zM403.954 77.8c-42.6-42.6-96.5-69.5-156-77.8l-5.2 37.1c51.4 7.2 98 30.5 134.8 67.2 34.9 34.9 57.8 79 66.1 127.5l36.9-6.3c-9.7-56.2-36.2-107.2-76.6-147.7z"/></svg><svg viewBox="0 0 333.67 491.58" id="icon__pin" xmlns="http://www.w3.org/2000/svg"><g data-name="Слой 2"><g data-name="Capa 1"><path d="M166.83 0C74.84 0 0 74.84 0 166.83c0 37 21.76 93.19 68.49 176.93 31.89 57.14 63.63 105.4 65 107.43L156.4 486a12.5 12.5 0 0020.87 0l22.94-34.77c1.32-2 32.83-49.85 65-107.43 46.72-83.74 68.49-140 68.49-176.93C333.67 74.84 258.83 0 166.83 0zm76.52 331.58c-31.69 56.77-62.7 103.87-64 105.84l-12.51 19-12.5-18.95c-1.31-2-32.56-49.51-64-105.85C47 253.9 25 198.47 25 166.83 25 88.63 88.63 25 166.83 25s141.84 63.63 141.84 141.83c0 31.65-21.98 87.07-65.32 164.75z"/><path d="M166.83 73.29a92.5 92.5 0 1092.5 92.5 92.61 92.61 0 00-92.5-92.5zm0 160a67.5 67.5 0 1167.5-67.5 67.58 67.58 0 01-67.5 67.5z"/></g></g></svg><svg viewBox="0 0 490 490" id="icon__search" xmlns="http://www.w3.org/2000/svg"><g data-name="Слой 2"><path d="M484 455.2L366.2 337.4A205.77 205.77 0 00413 206.5C413 92.5 320.5 0 206.5 0S0 92.5 0 206.5 92.4 413 206.5 413a205.41 205.41 0 00130.8-46.7L455.1 484a20.4 20.4 0 1028.9-28.8zm-277.5-83.3C115.2 371.9 41 297.7 41 206.5S115.2 41 206.5 41 372 115.3 372 206.5s-74.3 165.4-165.5 165.4z" data-name="Слой 1"/></g></svg></svg>