<svg version="1.1" id="Слой_1" xmlns="http://www.w3.org/2000/svg" xmlns:xlink="http://www.w3.org/1999/xlink" x="0" y="0" viewBox="0 0 265 32.1" xml:space="preserve"><path d="M78 14.4H55.8c-.7 0-1.3.6-1.3 1.3v12.9c0 1.6 1.3 3 3 3 1.6 0 3-1.3 3-3v-8.9H64v8.9c0 1.6 1.3 3 3 3s3-1.3 3-3v-8.9h3.5v8.9c0 1.6 1.3 3 3 3 1.6 0 3-1.3 3-3V15.8c-.2-.7-.8-1.4-1.5-1.4zm-65.1 8.8c-.4-.3-.8-.5-1.3-.7 1.3-.6 2.1-2 2.1-3.4 0-.7 0-4.5-5.3-4.5H.5c-.3-.2-.5.2-.5.3v16.2c0 .3.2.5.5.5h8.4c5.4 0 5.8-4.1 5.8-4.9 0-1.3-.6-2.7-1.8-3.5zm-7.7-4.8H7c.4 0 .8.1 1.2.2.4.2.7.7.6 1.1 0 .8-.5 1.3-1.9 1.3H5.2v-2.6zm2 9.4h-2V25h2c1.5 0 2.2.6 2.2 1.4 0 .9-.7 1.4-2.2 1.4zm167-14.7c2.1.1 4.1-.8 5.3-2.5.2-.2.1-.5-.1-.7l-2.5-1.3c-.2-.1-.5 0-.6.2-.7 1.1-2.2 1.4-3.3.7-.3-.2-.5-.4-.7-.7-.1-.2-.4-.3-.6-.2l-2.5 1.3c-.2.2-.3.5-.1.7 1.1 1.7 3 2.7 5.1 2.5zM44.9 18.6c1.3 0 2.5.6 3.4 1.7.2.2.5.2.7 0l2.4-3c.2-.2.2-.5 0-.7-1.8-1.5-4.1-2.4-6.4-2.3-5 0-8.7 3.5-8.7 8.9 0 3.6 2.1 8.9 8.7 8.9 2.4.1 4.7-.8 6.4-2.4.2-.2.2-.5 0-.7L49 26c-.2-.2-.5-.2-.7 0-.9 1-2.1 1.6-3.4 1.6-1.8 0-3.5-1.4-3.5-4.5 0-2.5 1.2-4.5 3.5-4.5zm-19.5-4.5c-5 0-8.7 3.5-8.7 8.9 0 3.6 2.1 8.9 8.7 8.9s8.7-5.3 8.7-8.9c0-5.3-3.7-8.9-8.7-8.9zm0 13.7c-1.8 0-3.5-1.5-3.5-4.6 0-2.6 1.3-4.6 3.5-4.6s3.5 2 3.5 4.6c.1 3.1-1.7 4.6-3.5 4.6zm110.8-13.4H132c-.3 0-.5.2-.5.5v6h-5v-6c0-.3-.2-.5-.5-.5h-4.2c-.3 0-.5.2-.5.5v16.2c0 .3.2.5.5.5h4.2c.3 0 .5-.2.5-.5v-6.3h5v6.3c0 .3.2.5.5.5h4.2c.3 0 .5-.2.5-.5V14.9c0-.1-.2-.5-.5-.5zm45.1 0h-4.4c-.2 0-.3.1-.4.3l-4.7 8.9v-8.7c0-.3-.2-.5-.5-.5h-4.2c-.3 0-.5.2-.5.5v16.2c0 .3.2.5.5.5h4.4c.2 0 .3-.1.4-.3l4.7-8.9v8.7c0 .3.2.5.5.5h4.2c.3 0 .5-.2.5-.5V14.9c0-.1-.2-.5-.5-.5.1 0 .1 0 0 0zm-90.2-.3c-5 0-8.7 3.5-8.7 8.9 0 3.6 2.1 8.9 8.7 8.9s8.7-5.3 8.7-8.9c0-5.3-3.7-8.9-8.7-8.9zm0 13.7c-1.8 0-3.5-1.5-3.5-4.6 0-2.6 1.3-4.6 3.5-4.6s3.5 2 3.5 4.6c0 3.1-1.8 4.6-3.5 4.6zm71-13.4h-4.2c-.3 0-.5.2-.5.5v16.2c0 .3.2.5.5.5h4.2c.3 0 .5-.2.5-.5V14.9c0-.1-.2-.5-.5-.5zm-13.8 6.4h-2.4V15c0-.3-.2-.5-.5-.5h-4.2c-.3 0-.5.2-.5.5v16.2c0 .3.2.5.5.5h7.2c4.4 0 6.8-1.9 6.8-5.5s-2.4-5.4-6.9-5.4zm-.4 7h-2v-3.1h2c.4 0 .9.1 1.3.2.5.2.8.7.7 1.2 0 1.5-1.2 1.7-2 1.7zm-31.1-13.4h-4.2c-.3 0-.5.2-.5.5v7c-4 .6-4.8-.8-4.8-2.1v-5c0-.3-.2-.5-.5-.5h-4.2c-.2 0-.4.2-.5.4v3.4c0 1.8 0 3.8.2 4.6.4 2.3 2.5 3.2 4.6 3.4 1.8.2 3.5.1 5.2-.4V31c0 .3.2.5.5.5h4.2c.3 0 .5-.2.5-.5V14.9c0-.1-.2-.5-.5-.5zm128.7 0h-4.2c-.3 0-.5.2-.5.5v6h-5v-6c0-.3-.2-.5-.5-.5h-4.2c-.3 0-.5.2-.5.5v16.2c0 .3.2.5.5.5h4.2c.3 0 .5-.2.5-.5v-6.3h5v6.3c0 .3.2.5.5.5h4.2c.3 0 .5-.2.5-.5V14.9c0-.1-.2-.5-.5-.5zM203.7 21H200v-2.6h7.8c.3 0 .5-.2.5-.5V15c0-.3-.2-.5-.5-.5h-12.5c-.3 0-.5.2-.5.5v16.2c0 .3.2.5.5.5h8.4c5.4 0 5.8-4 5.8-5.4 0-1.3-.4-5.3-5.8-5.3zm-1.7 6.8h-2v-2.9h2c1.5 0 2.2.5 2.2 1.5 0 .9-.7 1.4-2.2 1.4zm57.7-4.7l5.2-7.8c.2-.2.1-.5-.1-.7-.1-.1-.2-.1-.3-.1H260c-.2 0-.3.1-.4.2l-4.4 7.3v-7c0-.3-.2-.5-.5-.5h-4.2c-.3 0-.5.2-.5.5v16.2c0 .3.2.5.5.5h4.2c.3 0 .5-.2.5-.5v-7l4.4 7.3c.1.1.2.2.4.2h4.5c.3 0 .5-.2.5-.5 0-.1 0-.2-.1-.3l-5.2-7.8zm-37.6-8.3c-.1-.2-.3-.3-.5-.3h-4.5c-.2 0-.4.1-.5.3L210.5 31v.2c0 .3.2.5.5.5h4.5c.2 0 .4-.1.5-.3l.8-2.5h5.4l.8 2.5c.1.2.3.3.5.3h4.5c.3 0 .5-.2.5-.5V31l-6.4-16.2zm-4.2 10.1l1.5-5.2 1.6 5.2h-3.1z" fill="#1b58a9"/><path d="M53.4 10.6c-.7-1.3-.3-2.9 1-3.6L66.3.1c.4-.2.9-.2 1.3 0L79.5 7c1.3.7 1.7 2.3 1 3.6s-2.3 1.7-3.6 1L67 6l-10 5.6c-1.2.7-2.8.2-3.6-1z" fill="#eb3723"/></svg>